# xmcd CD database file
#
# Track frame offsets:
#	150
#	17127
#	36345
#	56675
#	77510
#	93555
#	102270
#	121475
#	140457
#	158190
#
# Disc length: 2355 seconds
#
# Revision: 3
# Processed by: cddbd v1.5.2PL0 Copyright (c) Steve Scherf et al.
# Submitted via: CDex 1.70beta2
#
DISCID=8009310a
DTITLE=Kukeiha Club - KUKEIHA CLUB
DYEAR=1990
DGENRE=Fusion
TTITLE0=Memories Of A Summer Island
TTITLE1=On The Brilliant Earth
TTITLE2=Good Night Pony
TTITLE3=Shuffle In The Dark
TTITLE4=Cross Over The Line
TTITLE5=Twinkling Star
TTITLE6=Return To Departure
TTITLE7=Tell Me The Reason
TTITLE8=Invisible Bridge
TTITLE9=Quiero Voar
EXTD=YEAR: 1990
EXTT0=
EXTT1=
EXTT2=
EXTT3=
EXTT4=
EXTT5=
EXTT6=
EXTT7=
EXTT8=
EXTT9=
PLAYORDER=
